<svg id="LOGO_B" data-name="LOGO B" xmlns="http://www.w3.org/2000/svg" viewBox="0 0 609.92 156.72"><defs><style>.cls-1{fill:#231f20;}</style></defs><title>VOGUE LOGO B</title><path class="cls-1" d="M610.81,101.71l0,1c-.69,15.22-6,27.43-15.87,36.29-17.4,15.67-43,14.35-49.65,14.27H544V82.32h2c12.43-.09,26.89-1.2,29.3,29.81l.07.92h2.38V48.45H575.4l-.1.89c-3.18,29.42-18,29.3-30.15,29.33H544V11.05c1.6,0,4.22,0,5.83-.05,22.84-.36,45.47-2.7,55.1,45.89l.16.8h2.43V7.28H476.26v3.47h11.62V117.13c-.28,15.28-6.26,24.66-11.51,29.63a33.16,33.16,0,0,1-23.25,8.88c-29.62-1.07-30.45-30.87-30.47-32.15V10.75h13.49v-2h0V7.28H383.67v3.47h13.91l0,100.28c0,27.42,13.93,48.57,54.61,48.57,27.28,0,39.8-22.66,39.52-41.45V10.75H504v0H518.7V153.18H505.46v3.58H613.52v-55Z" transform="translate(-3.6 -2.88)"/><path class="cls-1" d="M337.53,92.79v3.48h12.08v31.18c0,23.28-15.45,28.45-27.56,28.69-13.07.21-21.83-6.19-26.79-19.48-4.89-13-7.47-25.47-7.47-54.6h0c0-10.38,1.6-44.38,9.26-59.26,2.91-5.61,8.33-16,24.49-16h.15c19.7.08,31,13.72,40.2,50.29l.19.76h2.23V2.88h-2.14l-.26.62c-2.1,5-7.11,6.12-11.43,6a34,34,0,0,1-5.33-.66c-1.22-.27-2-.52-2-.53-1.9-.6-3.58-1.17-5.12-1.69-.7-.23-1.39-.44-2.06-.63-5-1.65-8.68-2.7-14.43-2.7C295.61,3.31,260,29.63,260,83.92c0,44.35,26.63,75.68,63,75.68,6.77,0,12.36-2.22,17.62-4.66,1-.4,1.95-.81,2.87-1.25,5.14-2.44,10-4.75,15.5-5h.66l.45,0c3.18,0,9.54,2.06,10.76,8.15l.16.8,2.13,0V96.27h11.44V92.79Z" transform="translate(-3.6 -2.88)"/><path class="cls-1" d="M182.85,3.65c-30.72,0-64.38,30.7-64.38,77.57s34.77,78,64.38,78,64.39-31.11,64.39-78S213.57,3.65,182.85,3.65Zm35.9,71.81c0,.34,0,.68,0,1s0,.5,0,.74,0,.39,0,.58,0,.61,0,.9V79c0,.32,0,.62,0,.91v1.27h0v.83c0,8.66-.77,42.19-9.55,58.9-5,9.68-14.74,14.8-26.42,14.8s-21.46-5.12-26.41-14.81c-8.78-16.7-9.51-50.23-9.55-58.89v-.83h0V80c0-.29,0-.59,0-.91v-.35c0-.29,0-.59,0-.9s0-.39,0-.58,0-.49,0-.74,0-.67,0-1c0-.12,0-.24,0-.36.34-13.36,2-38.46,9.48-53.21,6-12.22,18.15-14.78,26.4-14.78s20.37,2.56,26.42,14.79c7.47,14.74,9.13,39.84,9.47,53.2C218.74,75.22,218.75,75.34,218.75,75.46Z" transform="translate(-3.6 -2.88)"/><polygon class="cls-1" points="126.78 4.42 99.32 4.42 98.32 4.42 98.32 7.85 110.55 7.85 77.93 117 38.54 7.85 39.24 7.85 49.72 7.85 49.72 5.85 49.73 5.85 49.73 4.42 49.72 4.42 0 4.42 0 5.85 0 7.85 12.96 7.85 14.4 7.85 69.58 154.69 70.37 154.69 114.32 7.85 115.62 7.85 127.78 7.85 127.78 4.42 126.78 4.42"/></svg>